<svg width="243" height="38" viewBox="0 0 243 38" fill="none" xmlns="http://www.w3.org/2000/svg">
<path d="M27.5597 28.4623L22.934 23.8784C22.7362 23.6832 22.4809 23.5664 22.2065 23.5456C21.9321 23.5248 21.6535 23.6012 21.4126 23.7631L17.7833 26.1971C14.6329 22.829 12.7369 18.3128 12.4206 13.4234L16.3828 11.7824C16.6464 11.6742 16.8751 11.4784 17.0344 11.2248C17.1937 10.9711 17.2749 10.6733 17.2656 10.3765L17.0489 3.42597C17.0369 3.10531 16.9211 2.80592 16.7212 2.5794C16.5213 2.35289 16.25 2.21345 15.9539 2.18515L10.3345 1.66814C10.0487 1.6419 9.75729 1.72145 9.50777 1.89381C9.25826 2.06617 9.06539 2.32116 8.96063 2.61716C4.00718 16.6053 10.307 31.5711 23.0037 36.0672C23.2728 36.1627 23.5695 36.155 23.8455 36.0454C24.1214 35.9358 24.3602 35.7307 24.523 35.4637L27.7212 30.2134C27.8891 29.9346 27.9648 29.6072 27.9353 29.2876C27.9058 28.968 27.773 28.6762 27.5597 28.4623V28.4623Z" fill="white"/>
<path d="M40.5632 14.6526C42.0085 14.6526 43.3268 15.0042 44.5182 15.7073C45.7097 16.3909 46.6667 17.3284 47.3893 18.5198C48.1315 19.6917 48.5026 21.01 48.5026 22.4749C48.5026 23.9397 48.1315 25.2581 47.3893 26.43C46.6667 27.6018 45.7097 28.5393 44.5182 29.2425C43.3268 29.9261 42.0085 30.2679 40.5632 30.2679C39.1374 30.2679 37.819 29.9261 36.6081 29.2425C35.4167 28.5393 34.4597 27.6018 33.737 26.43C33.0143 25.2581 32.653 23.9397 32.653 22.4749C32.653 21.01 33.0143 19.6917 33.737 18.5198C34.4597 17.3284 35.4167 16.3909 36.6081 15.7073C37.819 15.0042 39.1374 14.6526 40.5632 14.6526ZM40.5632 18.2561C39.86 18.2561 39.2057 18.4221 38.6003 18.7542C37.9948 19.0862 37.5065 19.5647 37.1354 20.1897C36.7839 20.8147 36.6081 21.5764 36.6081 22.4749C36.6081 23.3733 36.7839 24.135 37.1354 24.76C37.5065 25.385 37.9948 25.8636 38.6003 26.1956C39.2057 26.5081 39.86 26.6643 40.5632 26.6643C41.2663 26.6643 41.9206 26.5081 42.5261 26.1956C43.1315 25.8636 43.6198 25.385 43.9909 24.76C44.362 24.135 44.5475 23.3733 44.5475 22.4749C44.5475 21.5764 44.362 20.8147 43.9909 20.1897C43.6198 19.5647 43.1315 19.0862 42.5261 18.7542C41.9206 18.4221 41.2663 18.2561 40.5632 18.2561ZM55.739 15.0335V17.1429C56.1882 16.5374 56.7936 15.971 57.5554 15.4436C58.3366 14.9163 59.2253 14.6526 60.2214 14.6526C61.7253 14.6526 62.985 15.1604 64.0007 16.1761C65.0163 17.1917 65.5241 18.7151 65.5241 20.7464V29.8284H61.8034L61.7741 21.2444C61.7741 20.2483 61.53 19.5061 61.0417 19.0179C60.5729 18.5296 59.9186 18.2854 59.0788 18.2854C58.4147 18.2854 57.7897 18.5003 57.2038 18.93C56.6374 19.3596 56.1491 19.8675 55.739 20.4534V29.8284H52.0182V15.0335H55.739ZM74.7233 10.7268V15.0335H78.8249V18.1389H74.7233V24.5257C74.7233 25.1897 74.8698 25.7171 75.1628 26.1077C75.4753 26.4788 75.9343 26.6643 76.5397 26.6643C77.0671 26.6643 77.5163 26.6057 77.8874 26.4886C78.278 26.3714 78.6393 26.2054 78.9714 25.9905V28.9495C78.6003 29.3206 78.1315 29.6331 77.5651 29.887C77.0182 30.1409 76.3249 30.2679 75.485 30.2679C74.1569 30.2679 73.0729 29.8479 72.2331 29.0081C71.4128 28.1487 71.0026 26.9768 71.0026 25.4925V18.1389H68.3366V16.2346C69.2741 15.9026 70.1335 15.2776 70.9147 14.3596C71.7155 13.4417 72.3503 12.2307 72.819 10.7268H74.7233ZM88.4929 14.6526C89.2936 14.6526 90.1042 14.8382 90.9245 15.2093C91.7448 15.5804 92.4284 16.0784 92.9753 16.7034V15.0335H96.696V29.8284H92.9753V27.3382C92.5456 28.1389 91.9206 28.8323 91.1003 29.4182C90.28 29.9846 89.3229 30.2679 88.2292 30.2679C87.0378 30.2679 85.9343 29.9651 84.9186 29.3596C83.9225 28.7542 83.1218 27.8753 82.5163 26.7229C81.9108 25.5706 81.6081 24.1741 81.6081 22.5335C81.6081 20.8929 81.9108 19.4866 82.5163 18.3147C83.1413 17.1429 83.9714 16.2444 85.0065 15.6194C86.0612 14.9749 87.2233 14.6526 88.4929 14.6526ZM89.2546 18.2854C88.4733 18.2854 87.7995 18.4905 87.2331 18.9007C86.6862 19.2913 86.2565 19.8089 85.944 20.4534C85.6315 21.0979 85.4753 21.7913 85.4753 22.5335C85.4753 23.6468 85.8073 24.594 86.4714 25.3753C87.155 26.1565 88.0534 26.5471 89.1667 26.5471C89.8307 26.5471 90.446 26.3714 91.0124 26.0198C91.5983 25.6682 92.0671 25.18 92.4186 24.555C92.7897 23.9104 92.9753 23.1389 92.9753 22.2405V20.1311C92.4479 19.5647 91.8718 19.1155 91.2468 18.7835C90.6413 18.4514 89.9772 18.2854 89.2546 18.2854ZM108.005 14.6526C109.098 14.6526 109.997 14.8284 110.7 15.18C111.403 15.5315 111.96 15.8733 112.37 16.2054V19.6331C111.862 19.262 111.286 18.9495 110.641 18.6956C110.016 18.4417 109.245 18.3147 108.327 18.3147C107.585 18.3147 106.891 18.5003 106.247 18.8714C105.622 19.2425 105.124 19.7405 104.753 20.3655C104.382 20.9905 104.196 21.7034 104.196 22.5042C104.196 23.7151 104.587 24.7112 105.368 25.4925C106.149 26.2737 107.135 26.6643 108.327 26.6643C109.245 26.6643 110.016 26.5471 110.641 26.3128C111.286 26.0589 111.862 25.7464 112.37 25.3753V28.7737C111.96 29.1253 111.403 29.4671 110.7 29.7991C109.997 30.1116 109.098 30.2679 108.005 30.2679C106.501 30.2679 105.163 29.9163 103.991 29.2132C102.839 28.4905 101.921 27.5432 101.237 26.3714C100.573 25.18 100.241 23.8909 100.241 22.5042C100.241 21.469 100.426 20.4827 100.798 19.5452C101.188 18.6077 101.735 17.7776 102.438 17.055C103.141 16.3128 103.962 15.7268 104.899 15.2971C105.856 14.8675 106.891 14.6526 108.005 14.6526ZM121.042 10.7268V15.0335H125.143V18.1389H121.042V24.5257C121.042 25.1897 121.188 25.7171 121.481 26.1077C121.794 26.4788 122.253 26.6643 122.858 26.6643C123.385 26.6643 123.835 26.6057 124.206 26.4886C124.596 26.3714 124.958 26.2054 125.29 25.9905V28.9495C124.919 29.3206 124.45 29.6331 123.883 29.887C123.337 30.1409 122.643 30.2679 121.803 30.2679C120.475 30.2679 119.391 29.8479 118.551 29.0081C117.731 28.1487 117.321 26.9768 117.321 25.4925V18.1389H114.655V16.2346C115.592 15.9026 116.452 15.2776 117.233 14.3596C118.034 13.4417 118.669 12.2307 119.137 10.7268H121.042Z" fill="white"/>
<path d="M133.815 10.1995V18.1975H142.926V10.1995H146.969V29.8284H142.926V21.8596H133.815V29.8284H129.743V10.1995H133.815ZM158.044 14.6526C158.844 14.6526 159.655 14.8382 160.475 15.2093C161.296 15.5804 161.979 16.0784 162.526 16.7034V15.0335H166.247V29.8284H162.526V27.3382C162.096 28.1389 161.471 28.8323 160.651 29.4182C159.831 29.9846 158.874 30.2679 157.78 30.2679C156.589 30.2679 155.485 29.9651 154.469 29.3596C153.473 28.7542 152.673 27.8753 152.067 26.7229C151.462 25.5706 151.159 24.1741 151.159 22.5335C151.159 20.8929 151.462 19.4866 152.067 18.3147C152.692 17.1429 153.522 16.2444 154.557 15.6194C155.612 14.9749 156.774 14.6526 158.044 14.6526ZM158.805 18.2854C158.024 18.2854 157.35 18.4905 156.784 18.9007C156.237 19.2913 155.807 19.8089 155.495 20.4534C155.182 21.0979 155.026 21.7913 155.026 22.5335C155.026 23.6468 155.358 24.594 156.022 25.3753C156.706 26.1565 157.604 26.5471 158.717 26.5471C159.382 26.5471 159.997 26.3714 160.563 26.0198C161.149 25.6682 161.618 25.18 161.969 24.555C162.341 23.9104 162.526 23.1389 162.526 22.2405V20.1311C161.999 19.5647 161.423 19.1155 160.798 18.7835C160.192 18.4514 159.528 18.2854 158.805 18.2854ZM174.538 15.0335V17.1429C174.987 16.5374 175.592 15.971 176.354 15.4436C177.135 14.9163 178.024 14.6526 179.02 14.6526C180.524 14.6526 181.784 15.1604 182.799 16.1761C183.815 17.1917 184.323 18.7151 184.323 20.7464V29.8284H180.602L180.573 21.2444C180.573 20.2483 180.329 19.5061 179.841 19.0179C179.372 18.5296 178.717 18.2854 177.878 18.2854C177.214 18.2854 176.589 18.5003 176.003 18.93C175.436 19.3596 174.948 19.8675 174.538 20.4534V29.8284H170.817V15.0335H174.538ZM202.663 8.73465V29.8284H198.942V27.3382C198.512 28.1389 197.887 28.8323 197.067 29.4182C196.247 29.9846 195.29 30.2679 194.196 30.2679C193.005 30.2679 191.901 29.9651 190.885 29.3596C189.889 28.7542 189.089 27.8753 188.483 26.7229C187.878 25.5706 187.575 24.1741 187.575 22.5335C187.575 20.8929 187.878 19.4866 188.483 18.3147C189.108 17.1429 189.938 16.2444 190.973 15.6194C192.028 14.9749 193.19 14.6526 194.46 14.6526C195.26 14.6526 196.071 14.8382 196.891 15.2093C197.712 15.5804 198.395 16.0784 198.942 16.7034V8.73465H202.663ZM195.221 18.3147C194.44 18.3147 193.766 18.5198 193.2 18.93C192.653 19.3206 192.223 19.8382 191.911 20.4827C191.598 21.1077 191.442 21.7913 191.442 22.5335C191.442 23.6468 191.774 24.594 192.438 25.3753C193.122 26.1565 194.02 26.5471 195.133 26.5471C195.798 26.5471 196.413 26.3714 196.979 26.0198C197.565 25.6682 198.034 25.18 198.385 24.555C198.757 23.9104 198.942 23.1389 198.942 22.2405V20.1311C198.415 19.5647 197.839 19.1253 197.214 18.8128C196.608 18.4807 195.944 18.3147 195.221 18.3147ZM210.954 8.73465V29.8284H207.233V8.73465H210.954ZM221.969 14.6526C223.415 14.6526 224.655 14.9651 225.69 15.5901C226.745 16.2151 227.546 17.0843 228.092 18.1975C228.659 19.2913 228.942 20.5608 228.942 22.0061V23.5882H218.219C218.415 24.5843 218.903 25.385 219.684 25.9905C220.466 26.596 221.423 26.8987 222.555 26.8987C223.63 26.8987 224.606 26.6839 225.485 26.2542C226.364 25.8245 227.067 25.385 227.594 24.9358L227.565 28.3929C227.096 28.803 226.393 29.2229 225.456 29.6526C224.538 30.0628 223.522 30.2679 222.409 30.2679C220.944 30.2679 219.606 29.9358 218.395 29.2718C217.204 28.6077 216.247 27.6995 215.524 26.5471C214.821 25.3948 214.469 24.0764 214.469 22.5921C214.469 21.1468 214.792 19.8284 215.436 18.637C216.081 17.4456 216.969 16.4886 218.102 15.7659C219.235 15.0237 220.524 14.6526 221.969 14.6526ZM221.882 17.9046C220.964 17.9046 220.192 18.1878 219.567 18.7542C218.942 19.3206 218.512 20.0823 218.278 21.0393H225.368C225.29 19.9846 224.899 19.2034 224.196 18.6956C223.493 18.1682 222.721 17.9046 221.882 17.9046ZM241.657 19.1936C241.032 18.8421 240.378 18.6663 239.694 18.6663C238.835 18.6663 238.122 18.9495 237.555 19.5159C236.989 20.0628 236.491 20.7464 236.061 21.5667V29.8284H232.341V15.0335H236.061V17.8167C236.569 16.9378 237.165 16.2054 237.848 15.6194C238.551 15.0335 239.342 14.7405 240.221 14.7405C240.749 14.7405 241.227 14.8284 241.657 15.0042V19.1936Z" fill="#A2DDFF"/>
</svg>
